<svg width="81" height="22" viewBox="0 0 81 22" fill="none" xmlns="http://www.w3.org/2000/svg">
<path d="M5.73701 2.47248L7.87449 1.00295C8.49238 0.578153 9.33333 1.02052 9.33333 1.77035V6.30741C9.33333 6.65598 9.528 6.97537 9.83781 7.13512L14.1622 9.36488C14.472 9.52463 14.6667 9.84402 14.6667 10.1926V18.7601C14.6667 19.0668 14.5157 19.3538 14.263 19.5275L12.1255 20.997C11.5076 21.4218 10.6667 20.9795 10.6667 20.2297V14.3883C10.6667 14.0036 10.4301 13.6585 10.0713 13.5198L5.9287 11.9177C5.56989 11.779 5.33333 11.4339 5.33333 11.0492V3.23987C5.33333 2.93321 5.48431 2.64621 5.73701 2.47248Z" fill="white"></path>
<path d="M10.6667 1.6297V5.61991C10.6667 5.96848 10.8613 6.28787 11.1711 6.44762L18.642 10.2998C19.2618 10.6193 20 10.1694 20 9.47206V6.03215C20 5.7024 19.8256 5.39724 19.5415 5.22983L12.0707 0.827386C11.4499 0.461557 10.6667 0.909127 10.6667 1.6297Z" fill="white"></path>
<path d="M17.358 11.0127L19.4955 12.1149C19.8053 12.2746 20 12.594 20 12.9426V15.9324C20 16.281 19.8053 16.6004 19.4955 16.7601L17.358 17.8623C16.7382 18.1818 16 17.7319 16 17.0346V11.8404C16 11.1431 16.7382 10.6932 17.358 11.0127Z" fill="white"></path>
<path d="M0.504473 16.7601L7.97529 20.6123C8.59509 20.9318 9.33333 20.4819 9.33333 19.7846V15.3937C9.33333 15.0139 9.10269 14.6721 8.75047 14.53L1.27965 11.5162C0.667582 11.2693 0 11.7199 0 12.3799V15.9324C0 16.281 0.194662 16.6004 0.504473 16.7601Z" fill="white"></path>
<path d="M0.628524 9.84105L3.33746 10.7723C3.66206 10.8838 4 10.6427 4 10.2994V4.38802C4 3.98543 3.54849 3.74792 3.21674 3.97599L0.403673 5.90997C0.150973 6.08371 0 6.37071 0 6.67737V8.96038C0 9.35802 0.252481 9.71179 0.628524 9.84105Z" fill="white"></path>
<path d="M27.58 12.62C27.58 12.8933 27.6267 13.1267 27.72 13.32C27.8133 13.5133 27.9433 13.6733 28.11 13.8C28.2767 13.92 28.4667 14.01 28.68 14.07C28.9 14.1233 29.1367 14.15 29.39 14.15C29.6633 14.15 29.8967 14.12 30.09 14.06C30.2833 13.9933 30.44 13.91 30.56 13.81C30.68 13.71 30.7667 13.5967 30.82 13.47C30.8733 13.3367 30.9 13.2033 30.9 13.07C30.9 12.7967 30.8367 12.5967 30.71 12.47C30.59 12.3367 30.4567 12.2433 30.31 12.19C30.0567 12.0967 29.76 12.01 29.42 11.93C29.0867 11.8433 28.6733 11.7333 28.18 11.6C27.8733 11.52 27.6167 11.4167 27.41 11.29C27.21 11.1567 27.05 11.01 26.93 10.85C26.81 10.69 26.7233 10.52 26.67 10.34C26.6233 10.16 26.6 9.97667 26.6 9.79C26.6 9.43 26.6733 9.12 26.82 8.86C26.9733 8.59333 27.1733 8.37333 27.42 8.2C27.6667 8.02667 27.9467 7.9 28.26 7.82C28.5733 7.73333 28.89 7.69 29.21 7.69C29.5833 7.69 29.9333 7.74 30.26 7.84C30.5933 7.93333 30.8833 8.07667 31.13 8.27C31.3833 8.46333 31.5833 8.70333 31.73 8.99C31.8767 9.27 31.95 9.59667 31.95 9.97H30.7C30.6667 9.51 30.51 9.18667 30.23 9C29.95 8.80667 29.5933 8.71 29.16 8.71C29.0133 8.71 28.8633 8.72667 28.71 8.76C28.5567 8.78667 28.4167 8.83667 28.29 8.91C28.1633 8.97667 28.0567 9.07 27.97 9.19C27.89 9.31 27.85 9.46 27.85 9.64C27.85 9.89333 27.9267 10.0933 28.08 10.24C28.24 10.38 28.4467 10.4867 28.7 10.56C28.7267 10.5667 28.83 10.5967 29.01 10.65C29.1967 10.6967 29.4033 10.75 29.63 10.81C29.8567 10.87 30.0767 10.93 30.29 10.99C30.51 11.0433 30.6667 11.0833 30.76 11.11C30.9933 11.1833 31.1967 11.2833 31.37 11.41C31.5433 11.5367 31.6867 11.6833 31.8 11.85C31.92 12.01 32.0067 12.1833 32.06 12.37C32.12 12.5567 32.15 12.7433 32.15 12.93C32.15 13.33 32.0667 13.6733 31.9 13.96C31.74 14.24 31.5267 14.47 31.26 14.65C30.9933 14.83 30.69 14.96 30.35 15.04C30.01 15.1267 29.6633 15.17 29.31 15.17C28.9033 15.17 28.52 15.12 28.16 15.02C27.8 14.92 27.4867 14.7667 27.22 14.56C26.9533 14.3533 26.74 14.09 26.58 13.77C26.42 13.4433 26.3367 13.06 26.33 12.62H27.58ZM37.9544 7.86H39.2844L42.0344 15H40.6944L40.0244 13.11H37.1744L36.5044 15H35.2144L37.9544 7.86ZM37.5144 12.16H39.6944L38.6244 9.09H38.5944L37.5144 12.16ZM45.5143 7.86H50.4443V8.94H46.7643V10.81H49.9943V11.83H46.7643V15H45.5143V7.86ZM57.282 8.71C56.902 8.71 56.572 8.78667 56.292 8.94C56.0187 9.09333 55.7954 9.3 55.622 9.56C55.4487 9.81333 55.3187 10.1033 55.232 10.43C55.152 10.7567 55.112 11.09 55.112 11.43C55.112 11.77 55.152 12.1033 55.232 12.43C55.3187 12.7567 55.4487 13.05 55.622 13.31C55.7954 13.5633 56.0187 13.7667 56.292 13.92C56.572 14.0733 56.902 14.15 57.282 14.15C57.662 14.15 57.9887 14.0733 58.262 13.92C58.542 13.7667 58.7687 13.5633 58.942 13.31C59.1154 13.05 59.242 12.7567 59.322 12.43C59.4087 12.1033 59.452 11.77 59.452 11.43C59.452 11.09 59.4087 10.7567 59.322 10.43C59.242 10.1033 59.1154 9.81333 58.942 9.56C58.7687 9.3 58.542 9.09333 58.262 8.94C57.9887 8.78667 57.662 8.71 57.282 8.71ZM57.282 7.69C57.8154 7.69 58.292 7.79 58.712 7.99C59.1387 8.19 59.4987 8.46 59.792 8.8C60.0854 9.14 60.3087 9.53667 60.462 9.99C60.622 10.4433 60.702 10.9233 60.702 11.43C60.702 11.9433 60.622 12.4267 60.462 12.88C60.3087 13.3333 60.0854 13.73 59.792 14.07C59.4987 14.41 59.1387 14.68 58.712 14.88C58.292 15.0733 57.8154 15.17 57.282 15.17C56.7487 15.17 56.2687 15.0733 55.842 14.88C55.422 14.68 55.0654 14.41 54.772 14.07C54.4787 13.73 54.252 13.3333 54.092 12.88C53.9387 12.4267 53.862 11.9433 53.862 11.43C53.862 10.9233 53.9387 10.4433 54.092 9.99C54.252 9.53667 54.4787 9.14 54.772 8.8C55.0654 8.46 55.422 8.19 55.842 7.99C56.2687 7.79 56.7487 7.69 57.282 7.69ZM64.6397 7.86H68.0497C68.8364 7.86 69.4264 8.03 69.8197 8.37C70.213 8.71 70.4097 9.18333 70.4097 9.79C70.4097 10.13 70.3597 10.4133 70.2597 10.64C70.1597 10.86 70.043 11.04 69.9097 11.18C69.7764 11.3133 69.643 11.41 69.5097 11.47C69.383 11.53 69.2897 11.57 69.2297 11.59V11.61C69.3364 11.6233 69.4497 11.6567 69.5697 11.71C69.6964 11.7633 69.813 11.85 69.9197 11.97C70.0264 12.0833 70.113 12.2333 70.1797 12.42C70.253 12.6067 70.2897 12.84 70.2897 13.12C70.2897 13.54 70.3197 13.9233 70.3797 14.27C70.4464 14.61 70.5464 14.8533 70.6797 15H69.3397C69.2464 14.8467 69.1897 14.6767 69.1697 14.49C69.1564 14.3033 69.1497 14.1233 69.1497 13.95C69.1497 13.6233 69.1297 13.3433 69.0897 13.11C69.0497 12.87 68.9764 12.6733 68.8697 12.52C68.763 12.36 68.6164 12.2433 68.4297 12.17C68.2497 12.0967 68.0164 12.06 67.7297 12.06H65.8897V15H64.6397V7.86ZM65.8897 11.11H67.9397C68.3397 11.11 68.643 11.0167 68.8497 10.83C69.0564 10.6367 69.1597 10.35 69.1597 9.97C69.1597 9.74333 69.1264 9.56 69.0597 9.42C68.993 9.27333 68.8997 9.16 68.7797 9.08C68.6664 9 68.533 8.94667 68.3797 8.92C68.233 8.89333 68.0797 8.88 67.9197 8.88H65.8897V11.11ZM76.3907 7.86H77.7207L80.4707 15H79.1307L78.4607 13.11H75.6107L74.9407 15H73.6507L76.3907 7.86ZM75.9507 12.16H78.1307L77.0607 9.09H77.0307L75.9507 12.16Z" fill="white"></path>
</svg>