<svg xmlns="http://www.w3.org/2000/svg" width="20" height="22" viewBox="0 0 20 22" fill="none">
  <path d="M 5.737 2.472 L 8.55 0.538 C 8.882 0.31 9.333 0.548 9.333 0.951 L 9.333 6.307 C 9.333 6.656 9.528 6.975 9.838 7.135 L 14.162 9.365 C 14.472 9.525 14.667 9.844 14.667 10.193 L 14.667 18.76 C 14.667 19.067 14.516 19.354 14.263 19.528 L 11.45 21.462 C 11.118 21.69 10.667 21.452 10.667 21.049 L 10.667 15.092 C 10.667 14.731 10.458 14.402 10.131 14.249 L 5.869 12.251 C 5.542 12.098 5.333 11.769 5.333 11.408 L 5.333 3.24 C 5.333 2.933 5.484 2.646 5.737 2.472 Z" fill="currentColor" fill-rule="nonzero"></path>
  <path d="M 10.667 0.875 L 10.667 5.62 C 10.667 5.968 10.861 6.288 11.171 6.448 L 19.271 10.624 C 19.604 10.796 20 10.554 20 10.18 L 20 6.032 C 20 5.702 19.826 5.397 19.542 5.23 L 11.421 0.444 C 11.087 0.248 10.667 0.488 10.667 0.875 Z" fill="currentColor" fill-rule="nonzero"></path>
  <path d="M 16.729 10.688 L 19.496 12.115 C 19.805 12.275 20 12.594 20 12.943 L 20 15.932 C 20 16.281 19.805 16.6 19.496 16.76 L 16.729 18.187 C 16.396 18.358 16 18.117 16 17.742 L 16 11.133 C 16 10.758 16.396 10.517 16.729 10.688 Z" fill="currentColor" fill-rule="nonzero"></path>
  <path d="M 0.504 16.76 L 8.604 20.937 C 8.937 21.108 9.333 20.867 9.333 20.492 L 9.333 16.085 C 9.333 15.727 9.129 15.401 8.807 15.246 L 0.717 11.346 C 0.385 11.186 0 11.428 0 11.796 L 0 15.932 C 0 16.281 0.195 16.6 0.504 16.76 Z" fill="currentColor" fill-rule="nonzero"></path>
  <path d="M 0.629 9.841 L 3.337 10.772 C 3.662 10.884 4 10.643 4 10.299 L 4 4.388 C 4 3.985 3.548 3.748 3.217 3.976 L 0.404 5.91 C 0.151 6.084 0 6.371 0 6.677 L 0 8.96 C 0 9.358 0.252 9.712 0.629 9.841 Z" fill="currentColor" fill-rule="nonzero"></path>
</svg>